# xmcd
#
# Track frame offsets:
#	150
#	23219
#	44177
#	61957
#	82193
#	96876
#	114185
#	129965
#	149815
#	169413
#
# Disc length: 2485 seconds
#
# Revision: 0
# Processed by: cddbd v1.5.2PL0 Copyright (c) Steve Scherf et al.
# Submitted via: EZCDAudioConverter 1.0.8.1
#
DISCID=9209b30a
DTITLE=Ole Paus - Omfavnelsen
DYEAR=2013
DGENRE=Blues
TTITLE0=Polkabjørn - Den lange veien
TTITLE1=Kari Iveland - Hvor langt, hvor lenge
TTITLE2=Reidar Larsen - Hel ved
TTITLE3=Anne Grete Preus - Bror
TTITLE4=Anita Skorgan - Judee ruler i himmelen
TTITLE5=Bjøro Håland - Så kom sangen
TTITLE6=Benedikte Narum - Nattbussen
TTITLE7=Jonas Fjeld - Folk som oss
TTITLE8=Lene Marlin - Omfavnelsen
TTITLE9=Kjetil Bjørnstad - Shetland
EXTD=
EXTT0=
EXTT1=
EXTT2=
EXTT3=
EXTT4=
EXTT5=
EXTT6=
EXTT7=
EXTT8=
EXTT9=
PLAYORDER=
